<svg width="198" height="45" viewBox="0 0 198 45" fill="none" xmlns="http://www.w3.org/2000/svg">
<path d="M20.481 21.5287H15.8405V11.6776H15.7402L11.664 21.3283H8.817L4.74086 11.6776H4.64053V21.5287H0V4.52491H6.14556L10.1966 14.4467H10.297L14.3355 4.52491H20.481V21.5287Z" fill="#13262F"/>
<path d="M25.2721 6.59882C26.9109 5.01982 29.1308 4.23032 31.9318 4.23032C34.7329 4.23032 36.9528 5.01982 38.5916 6.59882C40.2304 8.17783 41.0499 10.3224 41.0499 13.0327C41.0499 15.7429 40.2304 17.8875 38.5916 19.4665C36.9528 21.0377 34.7329 21.8232 31.9318 21.8232C29.1224 21.8232 26.8983 21.0377 25.2595 19.4665C23.6291 17.8875 22.8138 15.7429 22.8138 13.0327C22.8138 10.3224 23.6332 8.17783 25.2721 6.59882ZM34.6158 9.52116C33.9386 8.64917 33.0439 8.21318 31.9318 8.21318C30.8198 8.21318 29.9251 8.64917 29.2479 9.52116C28.5706 10.3931 28.232 11.5636 28.232 13.0327C28.232 14.4938 28.5664 15.6604 29.2353 16.5324C29.9126 17.4044 30.8114 17.8404 31.9318 17.8404C33.0523 17.8404 33.9469 17.4044 34.6158 16.5324C35.2931 15.6604 35.6317 14.4938 35.6317 13.0327C35.6317 11.5636 35.2931 10.3931 34.6158 9.52116Z" fill="#13262F"/>
<path d="M55.1846 21.5287V12.0664H55.0843L48.4371 21.5287H43.3701V4.52491H48.6879V13.9871H48.7882L55.4355 4.52491H60.5024V21.5287H55.1846ZM47.1327 0H50.0048C50.0215 0.518479 50.2013 0.915194 50.5441 1.19014C50.8953 1.4651 51.3593 1.60257 51.9363 1.60257C52.5132 1.60257 52.9731 1.4651 53.3159 1.19014C53.6671 0.915194 53.851 0.518479 53.8677 0H56.7398C56.7398 1.16265 56.3009 2.0857 55.4229 2.76915C54.545 3.44474 53.3828 3.78254 51.9363 3.78254C50.4898 3.78254 49.3275 3.44474 48.4496 2.76915C47.5717 2.0857 47.1327 1.16265 47.1327 0Z" fill="#13262F"/>
<path d="M68.128 14.6706V11.0177H70.4733C71.1924 11.0177 71.7609 10.8723 72.179 10.5817C72.5971 10.2832 72.8061 9.87859 72.8061 9.36797C72.8061 8.84949 72.5929 8.44492 72.1665 8.15426C71.74 7.85574 71.1547 7.70648 70.4106 7.70648C69.6581 7.70648 69.0477 7.89109 68.5795 8.26031C68.1196 8.62953 67.8897 9.11266 67.8897 9.70969H63.0861C63.1028 7.98143 63.7801 6.60668 65.1179 5.58543C66.4641 4.56419 68.2659 4.05356 70.5235 4.05356C72.7058 4.05356 74.4533 4.4817 75.766 5.33798C77.0871 6.1864 77.7476 7.31369 77.7476 8.71987C77.7476 9.70184 77.4299 10.5424 76.7944 11.2416C76.159 11.9407 75.3229 12.3767 74.2861 12.5495V12.6438C75.5235 12.7538 76.5143 13.1819 77.2585 13.9282C78.0027 14.6667 78.3747 15.5976 78.3747 16.7209C78.3747 18.2921 77.6389 19.5647 76.1674 20.5388C74.6958 21.5129 72.7685 22 70.3855 22C68.153 22 66.3428 21.4815 64.9548 20.4446C63.5752 19.4076 62.8436 18.025 62.76 16.2967H67.8269C67.8353 16.8702 68.0778 17.3219 68.5544 17.6518C69.031 17.9739 69.679 18.135 70.4984 18.135C71.2258 18.135 71.8111 17.9661 72.2543 17.6283C72.6974 17.2905 72.919 16.8466 72.919 16.2967C72.919 15.7861 72.6974 15.3894 72.2543 15.1066C71.8195 14.8159 71.2175 14.6706 70.4482 14.6706H68.128Z" fill="#13262F"/>
<path d="M91.9577 21.5287L91.017 18.1468H85.4986L84.5579 21.5287H79.1398L85.0471 4.52491H91.7194L97.6267 21.5287H91.9577ZM88.2076 8.44885L86.4643 14.6235H90.0513L88.308 8.44885H88.2076Z" fill="#13262F"/>
<path d="M115.888 21.5287H110.57V8.4842H106.632L106.331 14.4585C106.272 15.5661 106.122 16.5481 105.879 17.4044C105.637 18.2607 105.281 19.0187 104.813 19.6786C104.345 20.3385 103.726 20.8452 102.957 21.1987C102.188 21.5444 101.276 21.7172 100.223 21.7172C99.462 21.7172 98.8474 21.6543 98.3792 21.5287V17.2041C98.8056 17.2748 99.1401 17.3101 99.3825 17.3101C99.7755 17.3101 100.11 17.2316 100.386 17.0745C100.662 16.9095 100.875 16.6738 101.026 16.3674C101.176 16.0532 101.285 15.7193 101.352 15.3658C101.419 15.0045 101.464 14.5724 101.49 14.0696L101.916 4.52491H115.888V21.5287Z" fill="#13262F"/>
<path d="M120.666 6.59882C122.305 5.01982 124.525 4.23032 127.326 4.23032C130.127 4.23032 132.347 5.01982 133.986 6.59882C135.625 8.17783 136.444 10.3224 136.444 13.0327C136.444 15.7429 135.625 17.8875 133.986 19.4665C132.347 21.0377 130.127 21.8232 127.326 21.8232C124.517 21.8232 122.293 21.0377 120.654 19.4665C119.023 17.8875 118.208 15.7429 118.208 13.0327C118.208 10.3224 119.027 8.17783 120.666 6.59882ZM130.01 9.52116C129.333 8.64917 128.438 8.21318 127.326 8.21318C126.214 8.21318 125.319 8.64917 124.642 9.52116C123.965 10.3931 123.626 11.5636 123.626 13.0327C123.626 14.4938 123.961 15.6604 124.63 16.5324C125.307 17.4044 126.206 17.8404 127.326 17.8404C128.446 17.8404 129.341 17.4044 130.01 16.5324C130.687 15.6604 131.026 14.4938 131.026 13.0327C131.026 11.5636 130.687 10.3931 130.01 9.52116Z" fill="#13262F"/>
<path d="M144.082 21.5287H138.764V4.52491H151.356V8.4842H144.082V21.5287Z" fill="#13262F"/>
<path d="M155.32 20.9748C154.81 21.454 154.195 21.6936 153.476 21.6936C152.757 21.6936 152.142 21.454 151.632 20.9748C151.122 20.4956 150.867 19.9182 150.867 19.2426C150.867 18.567 151.122 17.9896 151.632 17.5104C152.142 17.0312 152.757 16.7916 153.476 16.7916C154.195 16.7916 154.81 17.0312 155.32 17.5104C155.83 17.9896 156.085 18.567 156.085 19.2426C156.085 19.9182 155.83 20.4956 155.32 20.9748Z" fill="#F96F5D"/>
<path d="M158.731 4.52491H166.996C169.02 4.52491 170.646 5.08659 171.875 6.20996C173.113 7.33333 173.731 8.83771 173.731 10.7231C173.731 12.5849 173.079 14.0775 171.775 15.2009C170.47 16.3242 168.756 16.8859 166.633 16.8859H164.049V21.5287H158.731V4.52491ZM164.049 8.28388V13.1976H165.541C166.436 13.1976 167.13 12.9895 167.623 12.5731C168.117 12.1489 168.363 11.5362 168.363 10.7349C168.363 9.94144 168.117 9.33655 167.623 8.92019C167.138 8.49598 166.457 8.28388 165.579 8.28388H164.049Z" fill="#F96F5D"/>
<path d="M184.204 16.3321V9.72148C183.175 9.78432 182.348 10.1064 181.721 10.6877C181.093 11.2691 180.78 12.0468 180.78 13.0209C180.78 13.995 181.093 14.7766 181.721 15.3658C182.348 15.9472 183.175 16.2692 184.204 16.3321ZM191.729 15.3658C192.356 14.7845 192.67 14.0068 192.67 13.0327C192.67 12.0586 192.356 11.2808 191.729 10.6995C191.102 10.1103 190.274 9.78432 189.246 9.72148V16.3321C190.274 16.2692 191.102 15.9472 191.729 15.3658ZM184.116 20.15C181.482 20.0557 179.379 19.388 177.807 18.1468C176.236 16.9056 175.45 15.1969 175.45 13.0209C175.45 10.8606 176.236 9.15979 177.807 7.91859C179.388 6.66952 181.491 5.99786 184.116 5.90359V4.05356H189.333V5.90359C191.967 5.99786 194.07 6.6656 195.642 7.9068C197.214 9.14801 198 10.8566 198 13.0327C198 15.193 197.21 16.8977 195.63 18.1468C194.058 19.388 191.959 20.0557 189.333 20.15V22H184.116V20.15Z" fill="#F96F5D"/>
<path d="M3.35389 43.3807H0V35.1818H3.29615C4.00647 35.1818 4.56982 35.3655 4.98622 35.733C5.40261 36.1004 5.6108 36.5985 5.6108 37.2273C5.6108 37.6742 5.47434 38.0663 5.20141 38.4034C4.93198 38.7405 4.59432 38.9413 4.18842 39.0057V39.0511C4.70629 39.0928 5.13318 39.2992 5.46909 39.6705C5.805 40.0417 5.97296 40.4962 5.97296 41.0341C5.97296 41.7576 5.73852 42.3295 5.26964 42.75C4.80076 43.1705 4.16218 43.3807 3.35389 43.3807ZM1.58509 36.4602V38.5909H2.72405C3.14744 38.5909 3.47461 38.4962 3.70555 38.3068C3.93649 38.1136 4.05196 37.8428 4.05196 37.4943C4.05196 37.1648 3.95048 36.911 3.74753 36.733C3.54459 36.5511 3.25766 36.4602 2.88676 36.4602H1.58509ZM1.58509 42.1023H2.94974C3.40812 42.1023 3.75628 42 3.99422 41.7955C4.23566 41.5871 4.35638 41.2879 4.35638 40.8977C4.35638 40.5152 4.23216 40.2235 3.98372 40.0227C3.73879 39.822 3.38188 39.7216 2.913 39.7216H1.58509V42.1023Z" fill="#F96F5D"/>
<path d="M10.3293 43.5625C9.22712 43.5625 8.3541 43.1799 7.71026 42.4148C7.06643 41.6458 6.74451 40.6004 6.74451 39.2784C6.74451 37.9602 7.06643 36.9186 7.71026 36.1534C8.3576 35.3845 9.23062 35 10.3293 35C11.2111 35 11.9582 35.2746 12.5705 35.8239C13.1864 36.3693 13.545 37.0777 13.6465 37.9489H12.0876C11.9862 37.4981 11.7762 37.1383 11.4578 36.8693C11.1394 36.5966 10.7632 36.4602 10.3293 36.4602C9.73099 36.4602 9.25337 36.714 8.89646 37.2216C8.53955 37.7292 8.3611 38.4129 8.3611 39.2727C8.3611 40.1477 8.5378 40.839 8.89121 41.3466C9.24462 41.8504 9.72575 42.1023 10.3346 42.1023C10.7755 42.1023 11.1499 41.9792 11.4578 41.733C11.7692 41.483 11.9809 41.1383 12.0929 40.6989H13.6517C13.5293 41.5777 13.1689 42.2746 12.5705 42.7898C11.9757 43.3049 11.2286 43.5625 10.3293 43.5625Z" fill="#F96F5D"/>
<path d="M19.7559 41.9602V43.3807H14.7382V35.1818H19.7559V36.5966H16.3233V38.5739H19.5617V39.892H16.3233V41.9602H19.7559Z" fill="#F96F5D"/>
<path d="M29.6496 43.3807H28.0698V36.6023H24.7369V43.3807H23.1465V35.1818H29.6496V43.3807Z" fill="#F96F5D"/>
<path d="M31.0195 35.1818H34.1005C34.8808 35.1818 35.5124 35.4394 35.9952 35.9545C36.4816 36.4697 36.7248 37.1477 36.7248 37.9886C36.7248 38.8258 36.4746 39.5038 35.9742 40.0227C35.4739 40.5379 34.823 40.7955 34.0217 40.7955H32.6046V43.3807H31.0195V35.1818ZM32.6046 36.5398V39.4545H33.6753C34.1302 39.4545 34.4836 39.3277 34.7356 39.0739C34.9875 38.8201 35.1135 38.4602 35.1135 37.9943C35.1135 37.5284 34.9875 37.1705 34.7356 36.9205C34.4871 36.6667 34.1355 36.5398 33.6806 36.5398H32.6046Z" fill="#F96F5D"/>
<path d="M42.8395 41.9602V43.3807H37.8218V35.1818H42.8395V36.5966H39.4069V38.5739H42.6453V39.892H39.4069V41.9602H42.8395Z" fill="#F96F5D"/>
<path d="M46.2826 39.9432C46.2511 40.4394 46.1986 40.8428 46.1251 41.1534C46.0516 41.4602 45.9362 41.714 45.7787 41.9148V41.9602H48.8702V36.5909H46.482L46.2826 39.9432ZM44.9862 43.3807V45H43.548V41.9602H44.0781C44.3301 41.7746 44.5085 41.5189 44.6135 41.1932C44.7185 40.8636 44.7885 40.4034 44.8235 39.8125L45.0859 35.1818H50.4553V41.9602H51.4V45H49.9671V43.3807H44.9862Z" fill="#F96F5D"/>
<path d="M58.8531 43.3807H57.268V36.5966H55.0583L54.8746 40.142C54.8186 41.2405 54.6139 42.0682 54.2605 42.625C53.9106 43.178 53.3683 43.4545 52.6334 43.4545C52.392 43.4545 52.2013 43.428 52.0613 43.375V41.875C52.1908 41.9053 52.308 41.9205 52.413 41.9205C52.7524 41.9205 52.9956 41.767 53.1426 41.4602C53.293 41.1534 53.384 40.6761 53.4155 40.0284L53.6412 35.1818H58.8531V43.3807Z" fill="#F96F5D"/>
<path d="M60.9683 36.1818C61.6261 35.4205 62.5166 35.0398 63.6399 35.0398C64.7631 35.0398 65.6518 35.4205 66.3062 36.1818C66.964 36.9432 67.2929 37.9773 67.2929 39.2841C67.2929 40.5871 66.964 41.6193 66.3062 42.3807C65.6483 43.142 64.7596 43.5227 63.6399 43.5227C62.5166 43.5227 61.6261 43.142 60.9683 42.3807C60.314 41.6193 59.9868 40.5871 59.9868 39.2841C59.9868 37.9773 60.314 36.9432 60.9683 36.1818ZM65.12 37.233C64.7526 36.7254 64.2592 36.4716 63.6399 36.4716C63.0205 36.4716 62.5254 36.7254 62.1545 37.233C61.7871 37.7405 61.6034 38.4242 61.6034 39.2841C61.6034 40.1402 61.7871 40.822 62.1545 41.3295C62.5219 41.8333 63.017 42.0852 63.6399 42.0852C64.2592 42.0852 64.7526 41.8333 65.12 41.3295C65.4874 40.822 65.6711 40.1402 65.6711 39.2841C65.6711 38.4242 65.4874 37.7405 65.12 37.233Z" fill="#F96F5D"/>
<path d="M75.0084 39.0682L78.1366 43.3807H76.1946L73.6123 39.7784H73.5703V43.3807H72.0272V39.7784H71.9852L69.3871 43.3807H67.4871L70.5838 39.0966L67.6656 35.1818H69.4606L71.9852 38.6534H72.0272V35.1818H73.5703V38.6534H73.6123L76.1421 35.1818H77.9057L75.0084 39.0682Z" fill="#F96F5D"/>
<path d="M83.9259 41.9602V43.3807H78.9082V35.1818H83.9259V36.5966H80.4933V38.5739H83.7317V39.892H80.4933V41.9602H83.9259Z" fill="#F96F5D"/>
<path d="M91.7674 43.3807H90.1823V39.9261H86.7707V43.3807H85.1856V35.1818H86.7707V38.5114H90.1823V35.1818H91.7674V43.3807Z" fill="#F96F5D"/>
<path d="M98.1602 43.3807V37.8352H98.0972L94.6594 43.3807H93.132V35.1818H94.7119V40.733H94.7748L98.2127 35.1818H99.7401V43.3807H98.1602Z" fill="#F96F5D"/>
<path d="M105.356 39.142V36.5284H104.049C103.626 36.5284 103.293 36.6458 103.052 36.8807C102.814 37.1117 102.695 37.4299 102.695 37.8352C102.695 38.2481 102.814 38.5701 103.052 38.8011C103.29 39.0284 103.622 39.142 104.049 39.142H105.356ZM104.27 40.4205L102.469 43.3807H100.716L102.711 40.1818C102.214 40.0152 101.817 39.7235 101.519 39.3068C101.222 38.8902 101.073 38.3977 101.073 37.8295C101.073 37.0341 101.322 36.3939 101.819 35.9091C102.319 35.4242 102.987 35.1818 103.824 35.1818H106.931V43.3807H105.356V40.4205H104.27Z" fill="#F96F5D"/>
<path d="M113.785 43.3807H110.432V35.1818H113.728C114.438 35.1818 115.001 35.3655 115.418 35.733C115.834 36.1004 116.042 36.5985 116.042 37.2273C116.042 37.6742 115.906 38.0663 115.633 38.4034C115.364 38.7405 115.026 38.9413 114.62 39.0057V39.0511C115.138 39.0928 115.565 39.2992 115.901 39.6705C116.237 40.0417 116.405 40.4962 116.405 41.0341C116.405 41.7576 116.17 42.3295 115.701 42.75C115.232 43.1705 114.594 43.3807 113.785 43.3807ZM112.017 36.4602V38.5909H113.156C113.579 38.5909 113.906 38.4962 114.137 38.3068C114.368 38.1136 114.484 37.8428 114.484 37.4943C114.484 37.1648 114.382 36.911 114.179 36.733C113.976 36.5511 113.689 36.4602 113.318 36.4602H112.017ZM112.017 42.1023H113.381C113.84 42.1023 114.188 42 114.426 41.7955C114.667 41.5871 114.788 41.2879 114.788 40.8977C114.788 40.5152 114.664 40.2235 114.415 40.0227C114.17 39.822 113.813 39.7216 113.345 39.7216H112.017V42.1023Z" fill="#F96F5D"/>
<path d="M120.289 36.1818C120.946 35.4205 121.837 35.0398 122.96 35.0398C124.083 35.0398 124.972 35.4205 125.626 36.1818C126.284 36.9432 126.613 37.9773 126.613 39.2841C126.613 40.5871 126.284 41.6193 125.626 42.3807C124.969 43.142 124.08 43.5227 122.96 43.5227C121.837 43.5227 120.946 43.142 120.289 42.3807C119.634 41.6193 119.307 40.5871 119.307 39.2841C119.307 37.9773 119.634 36.9432 120.289 36.1818ZM124.44 37.233C124.073 36.7254 123.579 36.4716 122.96 36.4716C122.341 36.4716 121.846 36.7254 121.475 37.233C121.107 37.7405 120.924 38.4242 120.924 39.2841C120.924 40.1402 121.107 40.822 121.475 41.3295C121.842 41.8333 122.337 42.0852 122.96 42.0852C123.579 42.0852 124.073 41.8333 124.44 41.3295C124.808 40.822 124.991 40.1402 124.991 39.2841C124.991 38.4242 124.808 37.7405 124.44 37.233Z" fill="#F96F5D"/>
<path d="M129.631 39.9432C129.6 40.4394 129.547 40.8428 129.474 41.1534C129.4 41.4602 129.285 41.714 129.127 41.9148V41.9602H132.219V36.5909H129.831L129.631 39.9432ZM128.335 43.3807V45H126.897V41.9602H127.427C127.679 41.7746 127.857 41.5189 127.962 41.1932C128.067 40.8636 128.137 40.4034 128.172 39.8125L128.434 35.1818H133.804V41.9602H134.749V45H133.316V43.3807H128.335Z" fill="#F96F5D"/>
<path d="M142.228 43.3807H140.643V39.9261H137.231V43.3807H135.646V35.1818H137.231V38.5114H140.643V35.1818H142.228V43.3807Z" fill="#F96F5D"/>
<path d="M144.338 36.1818C144.996 35.4205 145.886 35.0398 147.009 35.0398C148.133 35.0398 149.021 35.4205 149.676 36.1818C150.334 36.9432 150.662 37.9773 150.662 39.2841C150.662 40.5871 150.334 41.6193 149.676 42.3807C149.018 43.142 148.129 43.5227 147.009 43.5227C145.886 43.5227 144.996 43.142 144.338 42.3807C143.683 41.6193 143.356 40.5871 143.356 39.2841C143.356 37.9773 143.683 36.9432 144.338 36.1818ZM148.49 37.233C148.122 36.7254 147.629 36.4716 147.009 36.4716C146.39 36.4716 145.895 36.7254 145.524 37.233C145.157 37.7405 144.973 38.4242 144.973 39.2841C144.973 40.1402 145.157 40.822 145.524 41.3295C145.891 41.8333 146.387 42.0852 147.009 42.0852C147.629 42.0852 148.122 41.8333 148.49 41.3295C148.857 40.822 149.041 40.1402 149.041 39.2841C149.041 38.4242 148.857 37.7405 148.49 37.233Z" fill="#F96F5D"/>
<path d="M159.811 43.3807H158.399V37.8466H158.357L156.299 43.3011H155.302L153.245 37.8466H153.203V43.3807H151.791V35.1818H153.628L155.78 40.9943H155.822L157.974 35.1818H159.811V43.3807Z" fill="#F96F5D"/>
<path d="M171.326 43.3807H169.914V37.8466H169.872L167.815 43.3011H166.818L164.76 37.8466H164.718V43.3807H163.306V35.1818H165.143L167.295 40.9943H167.337L169.489 35.1818H171.326V43.3807Z" fill="#F96F5D"/>
<path d="M177.709 41.9602V43.3807H172.691V35.1818H177.709V36.5966H174.276V38.5739H177.515V39.892H174.276V41.9602H177.709Z" fill="#F96F5D"/>
<path d="M182.317 43.5625C181.215 43.5625 180.342 43.1799 179.698 42.4148C179.054 41.6458 178.732 40.6004 178.732 39.2784C178.732 37.9602 179.054 36.9186 179.698 36.1534C180.345 35.3845 181.218 35 182.317 35C183.199 35 183.946 35.2746 184.558 35.8239C185.174 36.3693 185.533 37.0777 185.634 37.9489H184.075C183.974 37.4981 183.764 37.1383 183.446 36.8693C183.127 36.5966 182.751 36.4602 182.317 36.4602C181.719 36.4602 181.241 36.714 180.884 37.2216C180.527 37.7292 180.349 38.4129 180.349 39.2727C180.349 40.1477 180.526 40.839 180.879 41.3466C181.232 41.8504 181.713 42.1023 182.322 42.1023C182.763 42.1023 183.138 41.9792 183.446 41.733C183.757 41.483 183.969 41.1383 184.081 40.6989H185.639C185.517 41.5777 185.157 42.2746 184.558 42.7898C183.963 43.3049 183.216 43.5625 182.317 43.5625Z" fill="#F96F5D"/>
<path d="M189.807 43.3807H188.222V36.5966H186.033V35.1818H192.001V36.5966H189.807V43.3807Z" fill="#F96F5D"/>
<path d="M198 41.9602V43.3807H192.982V35.1818H198V36.5966H194.567V38.5739H197.806V39.892H194.567V41.9602H198Z" fill="#F96F5D"/>
</svg>
