<svg width="274" height="62" viewBox="0 0 274 62" fill="none" xmlns="http://www.w3.org/2000/svg">
<path d="M29.8759 7.41066V34.281H24.4406V18.8264C24.4406 18.4699 24.4467 18.0826 24.4588 17.6646C24.4832 17.2465 24.5196 16.8224 24.5683 16.392L17.5097 30.2053C17.2908 30.6356 16.9929 30.9614 16.616 31.1827C16.2512 31.404 15.8317 31.5147 15.3574 31.5147H14.5184C14.0442 31.5147 13.6186 31.404 13.2417 31.1827C12.8769 30.9614 12.5851 30.6356 12.3662 30.2053L5.30762 16.3552C5.3441 16.7978 5.3745 17.2342 5.39882 17.6646C5.42314 18.0826 5.4353 18.4699 5.4353 18.8264V34.281H0V7.41066H4.70573C4.97324 7.41066 5.20427 7.41681 5.39882 7.4291C5.60553 7.4414 5.78792 7.47828 5.946 7.53976C6.10407 7.60123 6.2439 7.69959 6.3655 7.83484C6.49925 7.95778 6.62693 8.13606 6.74852 8.36966L13.5882 21.9985C13.8314 22.4657 14.0625 22.9513 14.2813 23.4554C14.5124 23.9595 14.7312 24.4759 14.9379 25.0046C15.1447 24.4636 15.3575 23.9349 15.5763 23.4185C15.8074 22.9022 16.0505 22.4104 16.3059 21.9432L23.1274 8.36966C23.249 8.13606 23.3706 7.95778 23.4922 7.83484C23.6259 7.69959 23.7718 7.60123 23.9299 7.53976C24.088 7.47828 24.2643 7.4414 24.4588 7.4291C24.6655 7.41681 24.9027 7.41066 25.1702 7.41066H29.8759Z" fill="#393D3F"/>
<path d="M61.1001 20.8366C61.1001 22.7792 60.7657 24.5866 60.0969 26.2586C59.4403 27.9307 58.5101 29.3877 57.3063 30.6295C56.1025 31.8589 54.6495 32.8241 52.9471 33.5249C51.257 34.2257 49.3783 34.5761 47.3112 34.5761C45.2441 34.5761 43.3594 34.2257 41.657 33.5249C39.9547 32.8241 38.4956 31.8589 37.2796 30.6295C36.0758 29.3877 35.1395 27.9307 34.4708 26.2586C33.8141 24.5866 33.4858 22.7792 33.4858 20.8366C33.4858 18.894 33.8141 17.0867 34.4708 15.4146C35.1395 13.7425 36.0758 12.2917 37.2796 11.0622C38.4956 9.83274 39.9547 8.8676 41.657 8.1668C43.3594 7.46599 45.2441 7.11559 47.3112 7.11559C49.3783 7.11559 51.257 7.47214 52.9471 8.18524C54.6495 8.88604 56.1025 9.85119 57.3063 11.0807C58.5101 12.3102 59.4403 13.7609 60.0969 15.433C60.7657 17.1051 61.1001 18.9063 61.1001 20.8366ZM54.7893 20.8366C54.7893 19.5088 54.6191 18.3162 54.2786 17.2588C53.9381 16.1892 53.4457 15.2855 52.8012 14.5478C52.1689 13.8101 51.3907 13.2446 50.4666 12.8511C49.5425 12.4577 48.4907 12.261 47.3112 12.261C46.1196 12.261 45.0556 12.4577 44.1193 12.8511C43.1952 13.2446 42.4109 13.8101 41.7665 14.5478C41.1342 15.2855 40.6478 16.1892 40.3073 17.2588C39.9669 18.3162 39.7966 19.5088 39.7966 20.8366C39.7966 22.1768 39.9669 23.3817 40.3073 24.4513C40.6478 25.5087 41.1342 26.4062 41.7665 27.1439C42.4109 27.8816 43.1952 28.4471 44.1193 28.8406C45.0556 29.2217 46.1196 29.4123 47.3112 29.4123C48.4907 29.4123 49.5425 29.2217 50.4666 28.8406C51.3907 28.4471 52.1689 27.8816 52.8012 27.1439C53.4457 26.4062 53.9381 25.5087 54.2786 24.4513C54.6191 23.3817 54.7893 22.1768 54.7893 20.8366Z" fill="#393D3F"/>
<path d="M87.9283 7.41066V34.281H81.727V19.2321C81.727 18.5313 81.7452 17.7937 81.7817 17.0191C81.8303 16.2322 81.9154 15.3962 82.037 14.5109C81.7574 15.2978 81.4534 16.0293 81.1251 16.7056C80.7968 17.3695 80.4745 17.9535 80.1584 18.4576L72.0784 32.4184C71.9446 32.6397 71.7805 32.861 71.5859 33.0823C71.4035 33.3036 71.1968 33.5065 70.9658 33.6909C70.7348 33.863 70.4855 34.0044 70.218 34.1151C69.9505 34.2257 69.6708 34.281 69.379 34.281H64.728V7.41066H70.9293V22.4411C70.9293 23.1419 70.9111 23.8857 70.8746 24.6726C70.8381 25.4472 70.753 26.2771 70.6192 27.1623C70.8989 26.3877 71.2029 25.6685 71.5312 25.0046C71.8595 24.3284 72.1817 23.7382 72.4979 23.2341L80.5779 9.27333C80.7116 9.05202 80.8697 8.83072 81.0521 8.60941C81.2467 8.3881 81.4594 8.19138 81.6905 8.01926C81.9215 7.83483 82.1708 7.6873 82.4383 7.57664C82.7058 7.46599 82.9855 7.41066 83.2773 7.41066H87.9283ZM76.6747 3.22427C77.0881 3.22427 77.4286 3.19353 77.6961 3.13206C77.9636 3.05829 78.1703 2.92305 78.3162 2.72633C78.4743 2.52961 78.5776 2.26527 78.6263 1.93331C78.6871 1.58906 78.7175 1.14644 78.7175 0.605469H82.0735C82.268 0.605469 82.4322 0.654648 82.566 0.753007C82.7119 0.839071 82.8274 0.955871 82.9125 1.10341C83.0098 1.23865 83.0827 1.39849 83.1314 1.58291C83.18 1.76733 83.2043 1.95175 83.2043 2.13618C83.2043 2.77551 83.0402 3.33492 82.7119 3.81442C82.3957 4.29392 81.9458 4.69965 81.3622 5.03161C80.7907 5.35128 80.1037 5.59103 79.3011 5.75086C78.5108 5.91069 77.6353 5.99061 76.6747 5.99061C75.7141 5.99061 74.8325 5.91069 74.03 5.75086C73.2396 5.59103 72.5526 5.35128 71.969 5.03161C71.3975 4.69965 70.9476 4.29392 70.6192 3.81442C70.3031 3.33492 70.145 2.77551 70.145 2.13618C70.145 1.95175 70.1693 1.76733 70.218 1.58291C70.2666 1.39849 70.3335 1.23865 70.4186 1.10341C70.5159 0.955871 70.6314 0.839071 70.7652 0.753007C70.9111 0.654648 71.0813 0.605469 71.2759 0.605469H74.6319C74.6319 1.14644 74.6562 1.58906 74.7048 1.93331C74.7656 2.26527 74.869 2.52961 75.0149 2.72633C75.173 2.92305 75.3797 3.05829 75.635 3.13206C75.9025 3.19353 76.2491 3.22427 76.6747 3.22427Z" fill="#393D3F"/>
<path d="M91.5704 9.97414C92.604 9.08891 93.8747 8.39425 95.3824 7.89016C96.9024 7.37378 98.5439 7.11559 100.307 7.11559C101.803 7.11559 103.152 7.29386 104.356 7.65041C105.572 7.99467 106.606 8.48031 107.457 9.10735C108.308 9.73439 108.959 10.4905 109.408 11.3757C109.87 12.2487 110.102 13.2138 110.102 14.2712C110.102 15.4761 109.84 16.5949 109.317 17.6277C108.807 18.6481 107.998 19.4965 106.891 20.1727C107.451 20.4678 107.968 20.812 108.442 21.2055C108.916 21.5866 109.317 22.0108 109.646 22.478C109.986 22.9329 110.247 23.4308 110.43 23.9718C110.624 24.5005 110.722 25.0661 110.722 25.6685C110.722 26.9103 110.491 28.0721 110.029 29.1541C109.579 30.2237 108.916 31.1581 108.04 31.9573C107.165 32.7565 106.089 33.3897 104.812 33.8569C103.535 34.3118 102.076 34.5392 100.435 34.5392C99.5228 34.5392 98.6047 34.4532 97.6806 34.281C96.7565 34.1089 95.8627 33.8692 94.9994 33.5618C94.1483 33.2421 93.3457 32.8671 92.5918 32.4368C91.8501 32.0065 91.1935 31.527 90.622 30.9983L92.4459 28.0844C92.5919 27.8754 92.7803 27.7033 93.0113 27.5681C93.2545 27.4205 93.516 27.3467 93.7956 27.3467C94.1726 27.3467 94.5617 27.4635 94.9629 27.6971C95.3642 27.9307 95.8202 28.1889 96.3309 28.4717C96.8537 28.7545 97.4617 29.0127 98.1548 29.2463C98.8479 29.4799 99.6687 29.5967 100.617 29.5967C101.298 29.5967 101.906 29.5352 102.441 29.4123C102.976 29.277 103.426 29.0619 103.791 28.7668C104.168 28.4717 104.453 28.0906 104.648 27.6234C104.843 27.1562 104.94 26.5845 104.94 25.9082C104.94 25.3796 104.824 24.9124 104.593 24.5066C104.374 24.1009 104.058 23.7628 103.645 23.4923C103.244 23.2095 102.757 23.0005 102.186 22.8653C101.626 22.73 101.006 22.6686 100.325 22.6809H96.4586L96.4403 17.849H99.8146C101.347 17.849 102.484 17.5908 103.225 17.0744C103.967 16.5457 104.338 15.7834 104.338 14.7876C104.338 13.9392 103.997 13.2692 103.317 12.7774C102.636 12.2733 101.614 12.0212 100.252 12.0212C99.462 12.0212 98.7689 12.1134 98.1731 12.2979C97.5894 12.47 97.0665 12.6667 96.6045 12.888C96.1546 13.1093 95.7533 13.3122 95.4007 13.4966C95.0602 13.6687 94.7441 13.7548 94.4522 13.7548C94.1361 13.7548 93.8747 13.681 93.668 13.5335C93.4734 13.386 93.2849 13.1646 93.1025 12.8696L91.5704 9.97414Z" fill="#393D3F"/>
<path d="M128.465 24.0087L126.003 16.6502C125.821 16.183 125.626 15.6359 125.419 15.0089C125.213 14.3695 125.006 13.681 124.799 12.9433C124.617 13.6933 124.422 14.388 124.216 15.0273C124.009 15.6666 123.814 16.2199 123.632 16.6871L121.188 24.0087H128.465ZM138.26 34.281H133.481C132.946 34.281 132.514 34.1581 132.186 33.9122C131.858 33.654 131.609 33.3282 131.438 32.9347L129.87 28.2504H119.765L118.197 32.9347C118.063 33.279 117.82 33.5925 117.467 33.8753C117.127 34.1458 116.701 34.281 116.19 34.281H111.375L121.662 7.41066H127.973L138.26 34.281Z" fill="#393D3F"/>
<path d="M163.739 34.281H157.538V12.0397H151.665C151.482 15.3347 151.227 18.1809 150.898 20.5784C150.57 22.9636 150.175 24.9923 149.713 26.6644C149.251 28.3365 148.728 29.6889 148.144 30.7217C147.561 31.7544 146.922 32.5598 146.229 33.1376C145.536 33.7032 144.788 34.0843 143.986 34.281C143.195 34.4777 142.362 34.5761 141.487 34.5761C140.417 34.5761 139.657 34.4777 139.207 34.281C138.757 34.0966 138.532 33.82 138.532 33.4511V29.6705H140.064C140.332 29.6705 140.612 29.6459 140.903 29.5967C141.195 29.5475 141.493 29.4184 141.797 29.2094C142.101 29.0004 142.399 28.693 142.691 28.2873C142.995 27.8816 143.281 27.316 143.548 26.5906C143.828 25.8652 144.089 24.9615 144.332 23.8796C144.588 22.7977 144.813 21.4883 145.007 19.9514C145.214 18.4022 145.39 16.5949 145.536 14.5294C145.682 12.4638 145.785 10.0909 145.846 7.41066H163.739V34.281Z" fill="#393D3F"/>
<path d="M194.973 20.8366C194.973 22.7792 194.639 24.5866 193.97 26.2586C193.314 27.9307 192.383 29.3877 191.18 30.6295C189.976 31.8589 188.523 32.8241 186.82 33.5249C185.13 34.2257 183.252 34.5761 181.184 34.5761C179.117 34.5761 177.233 34.2257 175.53 33.5249C173.828 32.8241 172.369 31.8589 171.153 30.6295C169.949 29.3877 169.013 27.9307 168.344 26.2586C167.687 24.5866 167.359 22.7792 167.359 20.8366C167.359 18.894 167.687 17.0867 168.344 15.4146C169.013 13.7425 169.949 12.2917 171.153 11.0622C172.369 9.83274 173.828 8.8676 175.53 8.1668C177.233 7.46599 179.117 7.11559 181.184 7.11559C183.252 7.11559 185.13 7.47214 186.82 8.18524C188.523 8.88604 189.976 9.85119 191.18 11.0807C192.383 12.3102 193.314 13.7609 193.97 15.433C194.639 17.1051 194.973 18.9063 194.973 20.8366ZM188.663 20.8366C188.663 19.5088 188.492 18.3162 188.152 17.2588C187.811 16.1892 187.319 15.2855 186.674 14.5478C186.042 13.8101 185.264 13.2446 184.34 12.8511C183.416 12.4577 182.364 12.261 181.184 12.261C179.993 12.261 178.929 12.4577 177.993 12.8511C177.068 13.2446 176.284 13.8101 175.64 14.5478C175.007 15.2855 174.521 16.1892 174.181 17.2588C173.84 18.3162 173.67 19.5088 173.67 20.8366C173.67 22.1768 173.84 23.3817 174.181 24.4513C174.521 25.5087 175.007 26.4062 175.64 27.1439C176.284 27.8816 177.068 28.4471 177.993 28.8406C178.929 29.2217 179.993 29.4123 181.184 29.4123C182.364 29.4123 183.416 29.2217 184.34 28.8406C185.264 28.4471 186.042 27.8816 186.674 27.1439C187.319 26.4062 187.811 25.5087 188.152 24.4513C188.492 23.3817 188.663 22.1768 188.663 20.8366Z" fill="#393D3F"/>
<path d="M215.345 12.0397H204.803V34.281H198.601V7.41066H215.345V12.0397Z" fill="#393D3F"/>
<path d="M213.993 31.3856C213.993 30.943 214.072 30.5311 214.23 30.15C214.4 29.7688 214.625 29.4369 214.905 29.1541C215.197 28.8713 215.537 28.65 215.926 28.4902C216.315 28.318 216.741 28.232 217.203 28.232C217.653 28.232 218.072 28.318 218.461 28.4902C218.851 28.65 219.191 28.8713 219.483 29.1541C219.775 29.4369 220 29.7688 220.158 30.15C220.328 30.5311 220.413 30.943 220.413 31.3856C220.413 31.8282 220.328 32.2462 220.158 32.6397C220 33.0208 219.775 33.3528 219.483 33.6356C219.191 33.9183 218.851 34.1396 218.461 34.2995C218.072 34.4593 217.653 34.5392 217.203 34.5392C216.741 34.5392 216.315 34.4593 215.926 34.2995C215.537 34.1396 215.197 33.9183 214.905 33.6356C214.625 33.3528 214.4 33.0208 214.23 32.6397C214.072 32.2462 213.993 31.8282 213.993 31.3856Z" fill="#62929E"/>
<path d="M233.518 20.5969C235.123 20.5969 236.278 20.2096 236.984 19.435C237.689 18.6604 238.042 17.5785 238.042 16.1892C238.042 15.5744 237.95 15.015 237.768 14.5109C237.586 14.0068 237.306 13.5765 236.929 13.22C236.564 12.8511 236.096 12.5683 235.525 12.3716C234.965 12.1749 234.296 12.0766 233.518 12.0766H230.308V20.5969H233.518ZM233.518 7.41066C235.391 7.41066 236.996 7.63812 238.333 8.09303C239.683 8.53564 240.79 9.15038 241.653 9.93725C242.528 10.7241 243.173 11.6524 243.586 12.722C244 13.7917 244.206 14.9474 244.206 16.1892C244.206 17.5293 243.994 18.7588 243.568 19.8776C243.143 20.9965 242.492 21.9555 241.617 22.7546C240.741 23.5538 239.628 24.1808 238.279 24.6357C236.941 25.0783 235.354 25.2997 233.518 25.2997H230.308V34.281H224.143V7.41066H233.518Z" fill="#62929E"/>
<path d="M262.728 26.4615C263.47 26.4369 264.151 26.2648 264.771 25.9451C265.403 25.6132 265.944 25.1706 266.394 24.6173C266.856 24.064 267.215 23.4185 267.47 22.6809C267.726 21.9432 267.853 21.1501 267.853 20.3018C267.853 19.4535 267.726 18.6666 267.47 17.9412C267.215 17.2035 266.856 16.558 266.394 16.0048C265.944 15.4515 265.403 15.0089 264.771 14.6769C264.151 14.345 263.47 14.1667 262.728 14.1421V26.4615ZM256.892 14.1421C256.138 14.1667 255.445 14.345 254.812 14.6769C254.192 15.0089 253.657 15.4515 253.207 16.0048C252.757 16.558 252.405 17.2035 252.149 17.9412C251.894 18.6666 251.766 19.4535 251.766 20.3018C251.766 21.1501 251.894 21.9432 252.149 22.6809C252.405 23.4185 252.757 24.064 253.207 24.6173C253.657 25.1706 254.192 25.6132 254.812 25.9451C255.445 26.2648 256.138 26.4369 256.892 26.4615V14.1421ZM262.728 9.51308C264.333 9.57455 265.823 9.90037 267.197 10.4905C268.571 11.0684 269.762 11.843 270.772 12.8142C271.781 13.7855 272.571 14.9105 273.143 16.1892C273.714 17.4678 274 18.8387 274 20.3018C274 21.7649 273.714 23.1419 273.143 24.4329C272.571 25.7115 271.781 26.8365 270.772 27.8078C269.762 28.7791 268.571 29.5598 267.197 30.15C265.823 30.7278 264.333 31.0475 262.728 31.109V34.281H256.892V31.109C255.287 31.0475 253.797 30.7278 252.423 30.15C251.049 29.5598 249.851 28.7791 248.83 27.8078C247.821 26.8365 247.03 25.7115 246.459 24.4329C245.887 23.1419 245.602 21.7649 245.602 20.3018C245.602 18.8387 245.887 17.4678 246.459 16.1892C247.03 14.9105 247.821 13.7855 248.83 12.8142C249.839 11.843 251.031 11.0684 252.405 10.4905C253.791 9.90037 255.287 9.57455 256.892 9.51308V6.35945H262.728V9.51308Z" fill="#62929E"/>
<path d="M14.8121 44.8564V61.2125H12.3721V49.9592C12.3721 49.6175 12.3798 49.2606 12.395 48.8885C12.4103 48.5089 12.4485 48.114 12.5096 47.704C12.3645 48.0684 12.2156 48.4063 12.0628 48.7177C11.9101 49.029 11.7574 49.3062 11.6046 49.5491L4.25043 60.4494C4.13587 60.6392 3.98314 60.8139 3.79222 60.9734C3.60894 61.1328 3.39893 61.2125 3.16219 61.2125H1.34082V44.8564H3.79222V56.1098C3.79222 56.4515 3.78077 56.8122 3.75786 57.1919C3.74258 57.5639 3.70822 57.9588 3.65476 58.3764C3.79222 58.0119 3.93732 57.674 4.09005 57.3627C4.24279 57.0438 4.39553 56.7628 4.54826 56.5198L11.9139 45.6196C12.0285 45.4297 12.1774 45.2551 12.3607 45.0956C12.544 44.9362 12.754 44.8564 12.9907 44.8564H14.8121Z" fill="#62929E"/>
<path d="M28.0499 61.2125H25.8047V51.326H20.4781V61.2125H18.2443V49.6403H28.0499V61.2125Z" fill="#62929E"/>
<path d="M36.1362 49.458C36.9915 49.458 37.7628 49.5985 38.4501 49.8795C39.1451 50.1528 39.7331 50.5515 40.2142 51.0754C40.703 51.5918 41.0772 52.2182 41.3368 52.9548C41.5965 53.6837 41.7263 54.5038 41.7263 55.415C41.7263 56.3262 41.5965 57.1501 41.3368 57.8867C41.0772 58.6232 40.703 59.2497 40.2142 59.766C39.7331 60.2824 39.1451 60.681 38.4501 60.962C37.7628 61.2353 36.9915 61.372 36.1362 61.372C35.2732 61.372 34.4943 61.2353 33.7993 60.962C33.112 60.681 32.524 60.2824 32.0352 59.766C31.5465 59.2497 31.1685 58.6232 30.9012 57.8867C30.6415 57.1501 30.5117 56.3262 30.5117 55.415C30.5117 54.5038 30.6415 53.6837 30.9012 52.9548C31.1685 52.2182 31.5465 51.5918 32.0352 51.0754C32.524 50.5515 33.112 50.1528 33.7993 49.8795C34.4943 49.5985 35.2732 49.458 36.1362 49.458ZM36.1362 59.6407C37.2359 59.6407 38.0568 59.2724 38.599 58.5359C39.1412 57.7993 39.4123 56.7628 39.4123 55.4264C39.4123 54.09 39.1412 53.0535 38.599 52.3169C38.0568 51.5728 37.2359 51.2007 36.1362 51.2007C35.0212 51.2007 34.1888 51.5728 33.639 52.3169C33.0967 53.0535 32.8256 54.09 32.8256 55.4264C32.8256 56.7628 33.0967 57.7993 33.639 58.5359C34.1888 59.2724 35.0212 59.6407 36.1362 59.6407Z" fill="#62929E"/>
<path d="M53.543 51.326H49.1557V61.2125H46.9104V51.326H42.5231V49.6403H53.543V51.326Z" fill="#62929E"/>
<path d="M62.6906 54.1393C62.6906 53.6989 62.6257 53.2927 62.4959 52.9206C62.3737 52.5485 62.1904 52.2258 61.946 51.9524C61.7017 51.6791 61.4038 51.4665 61.0525 51.3146C60.7012 51.1627 60.2965 51.0868 59.8383 51.0868C58.899 51.0868 58.1582 51.3564 57.616 51.8955C57.0814 52.4346 56.7416 53.1826 56.5965 54.1393H62.6906ZM64.5349 59.561C64.26 59.8799 63.9431 60.1571 63.5841 60.3925C63.2252 60.6203 62.8434 60.8063 62.4386 60.9506C62.0339 61.0948 61.6138 61.2012 61.1785 61.2695C60.7509 61.3378 60.327 61.372 59.907 61.372C59.1052 61.372 58.3606 61.2391 57.6733 60.9734C56.9936 60.7 56.4017 60.3051 55.8977 59.7888C55.4013 59.2648 55.0119 58.6194 54.7293 57.8525C54.4544 57.078 54.3169 56.1895 54.3169 55.1872C54.3169 54.3823 54.4429 53.6344 54.6949 52.9434C54.9469 52.2448 55.3059 51.6373 55.7717 51.121C56.2452 50.6046 56.8218 50.1984 57.5014 49.9022C58.1811 49.6061 58.9448 49.458 59.7925 49.458C60.5027 49.458 61.1556 49.5757 61.7513 49.8111C62.3546 50.0389 62.8739 50.373 63.3092 50.8134C63.7445 51.2539 64.0843 51.7968 64.3287 52.4422C64.5807 53.0876 64.7067 53.8242 64.7067 54.6519C64.7067 54.9936 64.6685 55.2252 64.5922 55.3467C64.5158 55.4606 64.3745 55.5175 64.1683 55.5175H56.5392C56.5621 56.2085 56.6614 56.8122 56.837 57.3285C57.0127 57.8373 57.2533 58.2625 57.5587 58.6042C57.8718 58.9459 58.2422 59.2003 58.6699 59.3674C59.0975 59.5344 59.5748 59.6179 60.1018 59.6179C60.5982 59.6179 61.0258 59.561 61.3847 59.4471C61.7513 59.3332 62.0644 59.2117 62.3241 59.0826C62.5913 58.9459 62.8128 58.8206 62.9885 58.7067C63.1717 58.5928 63.3321 58.5359 63.4696 58.5359C63.6529 58.5359 63.7941 58.6042 63.8934 58.7409L64.5349 59.561Z" fill="#62929E"/>
<path d="M75.8365 49.6403V61.2125H73.6027V56.3946C72.6023 56.6527 71.6668 56.8122 70.7962 56.8729C69.9256 56.9261 69.1658 56.8502 68.5166 56.6451C67.8675 56.4325 67.3559 56.0718 66.9816 55.5631C66.6151 55.0467 66.4318 54.3481 66.4318 53.4673V49.6403H68.677V53.1256C68.677 53.6571 68.7801 54.0824 68.9863 54.4013C69.1925 54.7126 69.5018 54.9328 69.9142 55.0619C70.3265 55.1834 70.8382 55.2214 71.4492 55.1758C72.0677 55.1227 72.7856 55.005 73.6027 54.8227V49.6403H75.8365Z" fill="#62929E"/>
<path d="M88.7711 49.6403V61.2125H86.5259V55.882H81.1993V61.2125H78.9655V49.6403H81.1993V54.1963H86.5259V49.6403H88.7711Z" fill="#62929E"/>
<path d="M96.4335 59.5838C97.1972 59.5838 97.77 59.4015 98.1518 59.037C98.5336 58.665 98.7246 58.1942 98.7246 57.6247C98.7246 57.3665 98.6826 57.1235 98.5986 56.8957C98.5145 56.6603 98.3809 56.4591 98.1976 56.292C98.0143 56.1174 97.7738 55.9807 97.4759 55.882C97.1858 55.7757 96.8268 55.7225 96.3992 55.7225H94.028V59.5838H96.4335ZM96.3992 54.1052C97.201 54.1052 97.8769 54.2039 98.4267 54.4013C98.9842 54.5911 99.431 54.8493 99.767 55.1758C100.103 55.4947 100.344 55.8668 100.489 56.292C100.641 56.7097 100.718 57.1463 100.718 57.6019C100.718 58.1258 100.622 58.6118 100.431 59.0598C100.248 59.5002 99.9732 59.8799 99.6066 60.1988C99.2401 60.5177 98.7895 60.7683 98.2549 60.9506C97.728 61.1252 97.1208 61.2125 96.4335 61.2125H91.8973V49.6403H94.028V54.1052H96.3992ZM105.403 49.6403V61.2125H103.169V49.6403H105.403Z" fill="#62929E"/>
<path d="M116.252 54.1393C116.252 53.6989 116.187 53.2927 116.058 52.9206C115.935 52.5485 115.752 52.2258 115.508 51.9524C115.263 51.6791 114.966 51.4665 114.614 51.3146C114.263 51.1627 113.858 51.0868 113.4 51.0868C112.461 51.0868 111.72 51.3564 111.178 51.8955C110.643 52.4346 110.303 53.1826 110.158 54.1393H116.252ZM118.097 59.561C117.822 59.8799 117.505 60.1571 117.146 60.3925C116.787 60.6203 116.405 60.8063 116 60.9506C115.596 61.0948 115.176 61.2012 114.74 61.2695C114.313 61.3378 113.889 61.372 113.469 61.372C112.667 61.372 111.922 61.2391 111.235 60.9734C110.555 60.7 109.963 60.3051 109.459 59.7888C108.963 59.2648 108.574 58.6194 108.291 57.8525C108.016 57.078 107.879 56.1895 107.879 55.1872C107.879 54.3823 108.005 53.6344 108.257 52.9434C108.509 52.2448 108.868 51.6373 109.333 51.121C109.807 50.6046 110.384 50.1984 111.063 49.9022C111.743 49.6061 112.507 49.458 113.354 49.458C114.064 49.458 114.717 49.5757 115.313 49.8111C115.916 50.0389 116.436 50.373 116.871 50.8134C117.306 51.2539 117.646 51.7968 117.89 52.4422C118.142 53.0876 118.268 53.8242 118.268 54.6519C118.268 54.9936 118.23 55.2252 118.154 55.3467C118.078 55.4606 117.936 55.5175 117.73 55.5175H110.101C110.124 56.2085 110.223 56.8122 110.399 57.3285C110.574 57.8373 110.815 58.2625 111.12 58.6042C111.434 58.9459 111.804 59.2003 112.232 59.3674C112.659 59.5344 113.137 59.6179 113.663 59.6179C114.16 59.6179 114.588 59.561 114.946 59.4471C115.313 59.3332 115.626 59.2117 115.886 59.0826C116.153 58.9459 116.375 58.8206 116.55 58.7067C116.733 58.5928 116.894 58.5359 117.031 58.5359C117.215 58.5359 117.356 58.6042 117.455 58.7409L118.097 59.561Z" fill="#62929E"/>
<path d="M125.731 50.8476C126.166 50.4376 126.701 50.1035 127.335 49.8453C127.969 49.5871 128.728 49.458 129.614 49.458C130.324 49.458 130.951 49.5453 131.493 49.72C132.035 49.887 132.489 50.1148 132.856 50.4034C133.23 50.6843 133.509 51.0071 133.692 51.3715C133.883 51.736 133.979 52.1157 133.979 52.5106C133.979 52.7384 133.94 52.9775 133.864 53.2281C133.795 53.4711 133.681 53.7065 133.52 53.9343C133.36 54.1621 133.146 54.3747 132.879 54.5721C132.619 54.762 132.295 54.9214 131.905 55.0505C132.623 55.2707 133.192 55.62 133.612 56.0984C134.032 56.5768 134.242 57.1729 134.242 57.8867C134.242 58.4258 134.116 58.9118 133.864 59.3446C133.62 59.7774 133.288 60.1457 132.868 60.4494C132.447 60.7456 131.963 60.9734 131.413 61.1328C130.863 61.2923 130.29 61.372 129.694 61.372C129.328 61.372 128.95 61.3378 128.56 61.2695C128.179 61.2012 127.801 61.0948 127.426 60.9506C127.052 60.8063 126.697 60.6203 126.361 60.3925C126.025 60.1647 125.723 59.8875 125.456 59.561L126.098 58.7409C126.197 58.6042 126.338 58.5359 126.521 58.5359C126.666 58.5359 126.815 58.5966 126.968 58.7181C127.128 58.832 127.319 58.9573 127.541 59.094C127.77 59.2307 128.041 59.3598 128.354 59.4813C128.675 59.5952 129.072 59.6521 129.546 59.6521C129.95 59.6521 130.309 59.6027 130.622 59.504C130.943 59.4053 131.21 59.2686 131.424 59.094C131.646 58.9193 131.814 58.7143 131.928 58.4789C132.043 58.2435 132.1 57.9854 132.1 57.7044C132.1 57.1577 131.875 56.7211 131.424 56.3946C130.974 56.068 130.279 55.9048 129.339 55.9048H128.022V54.4241H129.339C130.164 54.4241 130.806 54.2722 131.264 53.9685C131.722 53.6571 131.951 53.2585 131.951 52.7725C131.951 52.5599 131.901 52.3587 131.802 52.1689C131.703 51.9714 131.55 51.8006 131.344 51.6563C131.145 51.5044 130.893 51.3867 130.588 51.3032C130.29 51.2197 129.943 51.1779 129.546 51.1779C129.103 51.1779 128.728 51.2235 128.423 51.3146C128.117 51.3981 127.858 51.493 127.644 51.5993C127.43 51.7057 127.251 51.8044 127.106 51.8955C126.968 51.979 126.85 52.0208 126.75 52.0208C126.644 52.0208 126.552 52.0018 126.476 51.9638C126.407 51.9183 126.33 51.8309 126.246 51.7019L125.731 50.8476Z" fill="#62929E"/>
<path d="M143.01 56.0756C142.102 56.106 141.33 56.1781 140.696 56.292C140.063 56.3984 139.547 56.5426 139.15 56.7249C138.753 56.9071 138.466 57.1235 138.291 57.3741C138.115 57.6171 138.027 57.8904 138.027 58.1942C138.027 58.4827 138.073 58.7333 138.165 58.9459C138.264 59.1509 138.394 59.3218 138.554 59.4585C138.722 59.5876 138.917 59.6825 139.138 59.7432C139.36 59.804 139.601 59.8343 139.86 59.8343C140.204 59.8343 140.517 59.8002 140.799 59.7318C141.09 59.6635 141.361 59.5686 141.613 59.4471C141.865 59.318 142.105 59.1623 142.334 58.9801C142.564 58.7979 142.789 58.589 143.01 58.3536V56.0756ZM136.458 51.2576C137.107 50.6426 137.81 50.1832 138.566 49.8795C139.329 49.5757 140.166 49.4239 141.074 49.4239C141.739 49.4239 142.327 49.534 142.839 49.7542C143.35 49.9668 143.782 50.2667 144.133 50.654C144.484 51.0412 144.748 51.5044 144.923 52.0436C145.107 52.5827 145.198 53.1788 145.198 53.8318V61.2125H144.202C143.98 61.2125 143.812 61.1784 143.698 61.11C143.583 61.0341 143.491 60.8974 143.423 60.7L143.182 59.6863C142.884 59.9596 142.59 60.2026 142.3 60.4152C142.01 60.6203 141.704 60.7987 141.384 60.9506C141.071 61.0948 140.735 61.2049 140.376 61.2809C140.017 61.3568 139.62 61.3948 139.184 61.3948C138.726 61.3948 138.295 61.334 137.89 61.2125C137.493 61.0835 137.145 60.8898 136.847 60.6316C136.55 60.3735 136.313 60.0508 136.137 59.6635C135.969 59.2762 135.885 58.8244 135.885 58.3081C135.885 57.8525 136.007 57.4159 136.252 56.9982C136.504 56.573 136.909 56.1933 137.466 55.8592C138.031 55.5251 138.764 55.2518 139.665 55.0391C140.574 54.8265 141.689 54.705 143.01 54.6747V53.8318C143.01 52.9586 142.823 52.3055 142.449 51.8727C142.075 51.4399 141.525 51.2235 140.799 51.2235C140.311 51.2235 139.898 51.2842 139.562 51.4057C139.234 51.5272 138.948 51.6639 138.703 51.8158C138.466 51.96 138.256 52.0929 138.073 52.2144C137.898 52.3359 137.714 52.3967 137.523 52.3967C137.371 52.3967 137.237 52.3549 137.122 52.2714C137.015 52.1878 136.928 52.0891 136.859 51.9752L136.458 51.2576Z" fill="#62929E"/>
<path d="M158.292 49.6403V61.2125H156.047V53.6496C156.047 53.4977 156.054 53.3306 156.07 53.1484C156.085 52.9586 156.108 52.7687 156.138 52.5789C156.062 52.7384 155.986 52.8902 155.909 53.0345C155.841 53.1712 155.768 53.2927 155.692 53.399L150.342 60.6544C150.258 60.7911 150.147 60.9202 150.01 61.0417C149.872 61.1632 149.716 61.2239 149.54 61.2239H148.189V49.6403H150.422V57.2146C150.422 57.3665 150.415 57.5374 150.399 57.7272C150.384 57.9094 150.361 58.0917 150.331 58.2739C150.483 57.9398 150.632 57.6702 150.777 57.4652L156.127 50.1984C156.211 50.0693 156.322 49.944 156.459 49.8225C156.604 49.701 156.765 49.6403 156.94 49.6403H158.292ZM153.378 46.7928C153.683 46.7928 153.939 46.7586 154.145 46.6902C154.359 46.6219 154.527 46.5118 154.649 46.3599C154.779 46.2081 154.871 46.0106 154.924 45.7676C154.985 45.5171 155.016 45.2133 155.016 44.8564H156.333C156.486 44.8564 156.604 44.9248 156.688 45.0615C156.772 45.1981 156.814 45.35 156.814 45.5171C156.814 45.8967 156.734 46.2384 156.574 46.5422C156.421 46.8459 156.196 47.1079 155.898 47.3281C155.6 47.5407 155.237 47.7078 154.81 47.8292C154.39 47.9431 153.912 48.0001 153.378 48.0001C152.843 48.0001 152.362 47.9431 151.934 47.8292C151.514 47.7078 151.155 47.5407 150.858 47.3281C150.56 47.1079 150.331 46.8459 150.17 46.5422C150.018 46.2384 149.941 45.8967 149.941 45.5171C149.941 45.35 149.983 45.1981 150.067 45.0615C150.151 44.9248 150.27 44.8564 150.422 44.8564H151.74C151.74 45.2133 151.766 45.5171 151.82 45.7676C151.881 46.0106 151.973 46.2081 152.095 46.3599C152.225 46.5118 152.393 46.6219 152.599 46.6902C152.813 46.7586 153.072 46.7928 153.378 46.7928Z" fill="#62929E"/>
<path d="M174.504 49.6061V61.2125H172.488V53.8546C172.488 53.6268 172.5 53.3686 172.523 53.0801C172.553 52.7915 172.595 52.5257 172.649 52.2828L168.754 59.1396C168.685 59.2686 168.597 59.3712 168.49 59.4471C168.384 59.5154 168.258 59.5496 168.112 59.5496H167.86C167.723 59.5496 167.597 59.5154 167.482 59.4471C167.376 59.3712 167.288 59.2686 167.219 59.1396L163.267 52.26C163.313 52.503 163.351 52.7725 163.382 53.0687C163.412 53.3572 163.427 53.6192 163.427 53.8546V61.2125H161.411V49.6061H163.221C163.374 49.6061 163.527 49.6403 163.679 49.7086C163.832 49.7769 163.962 49.9098 164.069 50.1073L167.471 55.8251C167.57 56.0073 167.662 56.2009 167.746 56.4059C167.83 56.611 167.91 56.816 167.986 57.021C168.063 56.816 168.139 56.611 168.216 56.4059C168.3 56.2009 168.391 56.0073 168.49 55.8251L171.847 50.1073C171.954 49.9022 172.084 49.7693 172.236 49.7086C172.389 49.6403 172.542 49.6061 172.695 49.6061H174.504Z" fill="#62929E"/>
<path d="M182.168 59.5838C182.932 59.5838 183.505 59.4015 183.886 59.037C184.268 58.665 184.459 58.1942 184.459 57.6247C184.459 57.3665 184.417 57.1235 184.333 56.8957C184.249 56.6603 184.115 56.4591 183.932 56.292C183.749 56.1174 183.508 55.9807 183.211 55.882C182.92 55.7757 182.561 55.7225 182.134 55.7225H179.763V59.5838H182.168ZM182.134 54.1052C182.936 54.1052 183.611 54.2039 184.161 54.4013C184.719 54.5911 185.166 54.8493 185.502 55.1758C185.838 55.4947 186.078 55.8668 186.223 56.292C186.376 56.7097 186.452 57.1463 186.452 57.6019C186.452 58.1258 186.357 58.6118 186.166 59.0598C185.983 59.5002 185.708 59.8799 185.341 60.1988C184.975 60.5177 184.524 60.7683 183.989 60.9506C183.463 61.1252 182.855 61.2125 182.168 61.2125H177.632V49.6403H179.763V54.1052H182.134ZM191.137 49.6403V61.2125H188.904V49.6403H191.137Z" fill="#62929E"/>
<path d="M205.032 49.458C205.888 49.458 206.659 49.5985 207.346 49.8795C208.041 50.1528 208.629 50.5515 209.11 51.0754C209.599 51.5918 209.973 52.2182 210.233 52.9548C210.493 53.6837 210.623 54.5038 210.623 55.415C210.623 56.3262 210.493 57.1501 210.233 57.8867C209.973 58.6232 209.599 59.2497 209.11 59.766C208.629 60.2824 208.041 60.681 207.346 60.962C206.659 61.2353 205.888 61.372 205.032 61.372C204.169 61.372 203.39 61.2353 202.696 60.962C202.008 60.681 201.42 60.2824 200.931 59.766C200.443 59.2497 200.065 58.6232 199.797 57.8867C199.538 57.1501 199.408 56.3262 199.408 55.415C199.408 54.5038 199.538 53.6837 199.797 52.9548C200.065 52.2182 200.443 51.5918 200.931 51.0754C201.42 50.5515 202.008 50.1528 202.696 49.8795C203.39 49.5985 204.169 49.458 205.032 49.458ZM205.032 59.6407C206.132 59.6407 206.953 59.2724 207.495 58.5359C208.037 57.7993 208.309 56.7628 208.309 55.4264C208.309 54.09 208.037 53.0535 207.495 52.3169C206.953 51.5728 206.132 51.2007 205.032 51.2007C203.917 51.2007 203.085 51.5728 202.535 52.3169C201.993 53.0535 201.722 54.09 201.722 55.4264C201.722 56.7628 201.993 57.7993 202.535 58.5359C203.085 59.2724 203.917 59.6407 205.032 59.6407Z" fill="#62929E"/>
<path d="M222.922 49.6403V61.2125H220.676V55.882H215.35V61.2125H213.116V49.6403H215.35V54.1963H220.676V49.6403H222.922Z" fill="#62929E"/>
<path d="M236.392 61.2125H234.158V51.3829H230.687C230.595 52.8409 230.458 54.1014 230.275 55.1644C230.091 56.2199 229.87 57.1197 229.61 57.8639C229.351 58.6004 229.06 59.2003 228.74 59.6635C228.427 60.1191 228.091 60.476 227.732 60.7342C227.38 60.9847 227.018 61.1518 226.643 61.2353C226.269 61.3264 225.895 61.372 225.521 61.372C224.826 61.372 224.478 61.2581 224.478 61.0303V59.6293H225.097C225.357 59.6293 225.616 59.5876 225.876 59.504C226.143 59.4129 226.403 59.2421 226.655 58.9915C226.915 58.7333 227.159 58.3764 227.388 57.9208C227.617 57.4652 227.827 56.8691 228.018 56.1326C228.209 55.3884 228.373 54.4848 228.511 53.4218C228.648 52.3587 228.755 51.0982 228.831 49.6403H236.392V61.2125Z" fill="#62929E"/>
<path d="M245.793 56.0756C244.885 56.106 244.113 56.1781 243.479 56.292C242.846 56.3984 242.33 56.5426 241.933 56.7249C241.536 56.9071 241.249 57.1235 241.074 57.3741C240.898 57.6171 240.81 57.8904 240.81 58.1942C240.81 58.4827 240.856 58.7333 240.948 58.9459C241.047 59.1509 241.177 59.3218 241.337 59.4585C241.505 59.5876 241.7 59.6825 241.922 59.7432C242.143 59.804 242.384 59.8343 242.643 59.8343C242.987 59.8343 243.3 59.8002 243.583 59.7318C243.873 59.6635 244.144 59.5686 244.396 59.4471C244.648 59.318 244.888 59.1623 245.118 58.9801C245.347 58.7979 245.572 58.589 245.793 58.3536V56.0756ZM239.241 51.2576C239.89 50.6426 240.593 50.1832 241.349 49.8795C242.112 49.5757 242.949 49.4239 243.857 49.4239C244.522 49.4239 245.11 49.534 245.622 49.7542C246.133 49.9668 246.565 50.2667 246.916 50.654C247.267 51.0412 247.531 51.5044 247.706 52.0436C247.89 52.5827 247.981 53.1788 247.981 53.8318V61.2125H246.985C246.763 61.2125 246.595 61.1784 246.481 61.11C246.366 61.0341 246.274 60.8974 246.206 60.7L245.965 59.6863C245.667 59.9596 245.373 60.2026 245.083 60.4152C244.793 60.6203 244.487 60.7987 244.167 60.9506C243.854 61.0948 243.518 61.2049 243.159 61.2809C242.8 61.3568 242.403 61.3948 241.967 61.3948C241.509 61.3948 241.078 61.334 240.673 61.2125C240.276 61.0835 239.928 60.8898 239.631 60.6316C239.333 60.3735 239.096 60.0508 238.92 59.6635C238.752 59.2762 238.668 58.8244 238.668 58.3081C238.668 57.8525 238.79 57.4159 239.035 56.9982C239.287 56.573 239.692 56.1933 240.249 55.8592C240.814 55.5251 241.547 55.2518 242.448 55.0391C243.357 54.8265 244.472 54.705 245.793 54.6747V53.8318C245.793 52.9586 245.606 52.3055 245.232 51.8727C244.858 51.4399 244.308 51.2235 243.583 51.2235C243.094 51.2235 242.681 51.2842 242.345 51.4057C242.017 51.5272 241.731 51.6639 241.486 51.8158C241.249 51.96 241.039 52.0929 240.856 52.2144C240.681 52.3359 240.497 52.3967 240.306 52.3967C240.154 52.3967 240.02 52.3549 239.905 52.2714C239.799 52.1878 239.711 52.0891 239.642 51.9752L239.241 51.2576Z" fill="#62929E"/>
<path d="M261.075 49.6403V61.2125H258.83V53.6496C258.83 53.4977 258.837 53.3306 258.853 53.1484C258.868 52.9586 258.891 52.7687 258.922 52.5789C258.845 52.7384 258.769 52.8902 258.692 53.0345C258.624 53.1712 258.551 53.2927 258.475 53.399L253.125 60.6544C253.041 60.7911 252.93 60.9202 252.793 61.0417C252.656 61.1632 252.499 61.2239 252.323 61.2239H250.972V49.6403H253.205V57.2146C253.205 57.3665 253.198 57.5374 253.182 57.7272C253.167 57.9094 253.144 58.0917 253.114 58.2739C253.266 57.9398 253.415 57.6702 253.561 57.4652L258.91 50.1984C258.994 50.0693 259.105 49.944 259.242 49.8225C259.387 49.701 259.548 49.6403 259.723 49.6403H261.075ZM256.161 46.7928C256.466 46.7928 256.722 46.7586 256.928 46.6902C257.142 46.6219 257.31 46.5118 257.432 46.3599C257.562 46.2081 257.654 46.0106 257.707 45.7676C257.768 45.5171 257.799 45.2133 257.799 44.8564H259.116C259.269 44.8564 259.387 44.9248 259.471 45.0615C259.555 45.1981 259.597 45.35 259.597 45.5171C259.597 45.8967 259.517 46.2384 259.357 46.5422C259.204 46.8459 258.979 47.1079 258.681 47.3281C258.383 47.5407 258.02 47.7078 257.593 47.8292C257.173 47.9431 256.695 48.0001 256.161 48.0001C255.626 48.0001 255.145 47.9431 254.717 47.8292C254.297 47.7078 253.939 47.5407 253.641 47.3281C253.343 47.1079 253.114 46.8459 252.953 46.5422C252.801 46.2384 252.724 45.8967 252.724 45.5171C252.724 45.35 252.766 45.1981 252.85 45.0615C252.934 44.9248 253.053 44.8564 253.205 44.8564H254.523C254.523 45.2133 254.549 45.5171 254.603 45.7676C254.664 46.0106 254.756 46.2081 254.878 46.3599C255.008 46.5118 255.176 46.6219 255.382 46.6902C255.596 46.7586 255.855 46.7928 256.161 46.7928Z" fill="#62929E"/>
<path d="M274 49.6403V61.2125H271.755V55.882H266.428V61.2125H264.194V49.6403H266.428V54.1963H271.755V49.6403H274Z" fill="#62929E"/>
</svg>
